<svg width="24" height="24" viewBox="0 0 24 24" fill="none" xmlns="http://www.w3.org/2000/svg">
  <path d="M7.2 4.6C8.3 3.5 9.9 3 12 3C14.1 3 15.7 3.5 16.8 4.6C18 5.7 18.5 7.2 18.5 9.1C20.1 10.1 21 11.8 21 13.8C21 15.7 20.4 17.2 19.3 18.3C18.2 19.4 16.7 20 14.8 20C13.8 20.7 12.9 21 12 21C11.1 21 10.2 20.7 9.2 20C7.3 20 5.8 19.4 4.7 18.3C3.6 17.2 3 15.7 3 13.8C3 11.8 3.9 10.1 5.5 9.1C5.5 7.2 6 5.7 7.2 4.6Z" stroke="currentColor" stroke-width="1.7" stroke-linejoin="round"/>
  <path d="M9 12H15" stroke="currentColor" stroke-width="1.7" stroke-linecap="round"/>
  <path d="M9 15H12.5" stroke="currentColor" stroke-width="1.7" stroke-linecap="round"/>
</svg>
